<svg width="1001" height="324" viewBox="0 0 1001 324" fill="none" xmlns="http://www.w3.org/2000/svg">
<g clip-path="url(#clip0)">
<path d="M433.352 318.984H352.342L403.011 5.67909H484.018L433.352 318.984Z" fill="white"/>
<path d="M727.023 13.3385C711.045 6.99923 685.701 -0.00012207 654.363 -0.00012207C574.362 -0.00012207 518.027 42.6604 517.681 103.652C517.017 148.652 558.016 173.646 588.68 188.65C620.022 203.982 630.676 213.989 630.676 227.656C630.357 248.645 605.35 258.32 582.026 258.32C549.683 258.32 532.353 253.332 506.017 241.654L495.35 236.649L484.013 306.979C503.013 315.635 538.019 323.316 574.362 323.653C659.365 323.653 714.704 281.653 715.359 216.656C715.683 180.99 694.033 153.662 647.359 131.331C619.025 116.995 601.673 107.329 601.673 92.6614C602.005 79.3272 616.35 65.6696 648.334 65.6696C674.67 65.0007 694.02 71.3311 708.679 77.666L716.006 80.9929L727.023 13.3385V13.3385Z" fill="white"/>
<path d="M834.694 207.991C841.365 189.992 867.037 120.331 867.037 120.331C866.7 121 873.695 102 877.695 90.3357L883.357 117.332C883.357 117.332 898.698 192.327 902.029 207.991C889.368 207.991 850.695 207.991 834.694 207.991ZM934.691 5.67909H872.029C852.706 5.67909 838.025 11.3406 829.688 31.6741L709.357 318.979H794.359C794.359 318.979 808.353 280.31 811.361 271.982C820.686 271.982 903.376 271.982 915.372 271.982C917.698 282.981 925.038 318.979 925.038 318.979H1000.05L934.691 5.67909V5.67909Z" fill="white"/>
<path d="M284.678 5.67909L205.342 219.323L196.673 175.993C182.005 125.997 136.004 71.6767 84.6699 44.6672L157.339 318.652H243.006L370.34 5.67909H284.678V5.67909Z" fill="white"/>
<path d="M131.672 5.67909H1.33341L0 12.0095C101.672 38.009 169.008 100.68 196.673 176.007L168.339 32.0152C163.674 12.0051 149.338 6.33916 131.672 5.67909Z" fill="white"/>
</g>
<defs>
<clipPath id="clip0">
<rect width="1000.05" height="323.653" fill="white"/>
</clipPath>
</defs>
</svg>
